<mxfile host="app.diagrams.net" agent="Mozilla/5.0 (Windows NT 10.0; Win64; x64) AppleWebKit/537.36 (KHTML, like Gecko) Chrome/138.0.0.0 Safari/537.36" version="28.1.0">
  <diagram name="Page-1" id="0783ab3e-0a74-02c8-0abd-f7b4e66b4bec">
    <mxGraphModel dx="2316" dy="1249" grid="1" gridSize="10" guides="1" tooltips="1" connect="1" arrows="1" fold="1" page="1" pageScale="1" pageWidth="850" pageHeight="1100" background="none" math="0" shadow="0">
      <root>
        <mxCell id="0" />
        <mxCell id="1" parent="0" />
        <mxCell id="LbVXL361Wuzx-bzGxzNl-118" value="" style="rounded=0;whiteSpace=wrap;html=1;" vertex="1" parent="1">
          <mxGeometry x="210" y="290" width="1130" height="1120" as="geometry" />
        </mxCell>
        <mxCell id="LbVXL361Wuzx-bzGxzNl-119" value="&lt;font style=&quot;font-size: 20px;&quot;&gt;&lt;b&gt;Boxella Gift Box Application&lt;/b&gt;&lt;/font&gt;" style="text;html=1;align=center;verticalAlign=middle;whiteSpace=wrap;rounded=0;" vertex="1" parent="1">
          <mxGeometry x="440" y="330" width="650" height="30" as="geometry" />
        </mxCell>
        <mxCell id="LbVXL361Wuzx-bzGxzNl-120" value="Admin" style="shape=umlActor;verticalLabelPosition=bottom;verticalAlign=top;html=1;outlineConnect=0;" vertex="1" parent="1">
          <mxGeometry x="270" y="850" width="30" height="60" as="geometry" />
        </mxCell>
        <mxCell id="LbVXL361Wuzx-bzGxzNl-121" value="&lt;font style=&quot;font-size: 16px;&quot;&gt;Sign In&lt;/font&gt;" style="ellipse;whiteSpace=wrap;html=1;" vertex="1" parent="1">
          <mxGeometry x="640" y="480" width="240" height="80" as="geometry" />
        </mxCell>
        <mxCell id="LbVXL361Wuzx-bzGxzNl-142" value="" style="edgeStyle=orthogonalEdgeStyle;rounded=0;orthogonalLoop=1;jettySize=auto;html=1;dashed=1;" edge="1" parent="1" source="LbVXL361Wuzx-bzGxzNl-122" target="LbVXL361Wuzx-bzGxzNl-124">
          <mxGeometry relative="1" as="geometry" />
        </mxCell>
        <mxCell id="LbVXL361Wuzx-bzGxzNl-122" value="&lt;font style=&quot;font-size: 16px;&quot;&gt;Purchase Gift Box&lt;/font&gt;" style="ellipse;whiteSpace=wrap;html=1;" vertex="1" parent="1">
          <mxGeometry x="645" y="610" width="240" height="80" as="geometry" />
        </mxCell>
        <mxCell id="LbVXL361Wuzx-bzGxzNl-124" value="Select Gift Box" style="ellipse;whiteSpace=wrap;html=1;" vertex="1" parent="1">
          <mxGeometry x="644.5" y="731" width="240" height="80" as="geometry" />
        </mxCell>
        <mxCell id="LbVXL361Wuzx-bzGxzNl-125" value="Complete Purchase" style="ellipse;whiteSpace=wrap;html=1;" vertex="1" parent="1">
          <mxGeometry x="642.5" y="850" width="240" height="80" as="geometry" />
        </mxCell>
        <mxCell id="LbVXL361Wuzx-bzGxzNl-128" value="Add New Item" style="ellipse;whiteSpace=wrap;html=1;" vertex="1" parent="1">
          <mxGeometry x="637.5" y="980" width="240" height="80" as="geometry" />
        </mxCell>
        <mxCell id="LbVXL361Wuzx-bzGxzNl-129" value="Add New Gift Box" style="ellipse;whiteSpace=wrap;html=1;" vertex="1" parent="1">
          <mxGeometry x="637.5" y="1110" width="240" height="80" as="geometry" />
        </mxCell>
        <mxCell id="LbVXL361Wuzx-bzGxzNl-130" value="Add New Item" style="ellipse;whiteSpace=wrap;html=1;" vertex="1" parent="1">
          <mxGeometry x="637.5" y="1250" width="240" height="80" as="geometry" />
        </mxCell>
        <mxCell id="LbVXL361Wuzx-bzGxzNl-131" value="Customer" style="shape=umlActor;verticalLabelPosition=bottom;verticalAlign=top;html=1;outlineConnect=0;" vertex="1" parent="1">
          <mxGeometry x="1230" y="820" width="30" height="60" as="geometry" />
        </mxCell>
        <mxCell id="LbVXL361Wuzx-bzGxzNl-133" value="" style="endArrow=classic;html=1;rounded=0;entryX=1;entryY=0.5;entryDx=0;entryDy=0;exitX=0.5;exitY=0.5;exitDx=0;exitDy=0;exitPerimeter=0;" edge="1" parent="1" source="LbVXL361Wuzx-bzGxzNl-131" target="LbVXL361Wuzx-bzGxzNl-122">
          <mxGeometry width="50" height="50" relative="1" as="geometry">
            <mxPoint x="1220" y="830" as="sourcePoint" />
            <mxPoint x="1270" y="780" as="targetPoint" />
          </mxGeometry>
        </mxCell>
        <mxCell id="LbVXL361Wuzx-bzGxzNl-134" value="" style="endArrow=classic;html=1;rounded=0;entryX=1;entryY=0.5;entryDx=0;entryDy=0;exitX=0.5;exitY=0.5;exitDx=0;exitDy=0;exitPerimeter=0;" edge="1" parent="1" source="LbVXL361Wuzx-bzGxzNl-131" target="LbVXL361Wuzx-bzGxzNl-121">
          <mxGeometry width="50" height="50" relative="1" as="geometry">
            <mxPoint x="1430" y="940" as="sourcePoint" />
            <mxPoint x="1070" y="740" as="targetPoint" />
          </mxGeometry>
        </mxCell>
        <mxCell id="LbVXL361Wuzx-bzGxzNl-136" value="" style="endArrow=classic;html=1;rounded=0;entryX=1;entryY=0.5;entryDx=0;entryDy=0;exitX=0.5;exitY=0.5;exitDx=0;exitDy=0;exitPerimeter=0;" edge="1" parent="1" source="LbVXL361Wuzx-bzGxzNl-131" target="LbVXL361Wuzx-bzGxzNl-124">
          <mxGeometry width="50" height="50" relative="1" as="geometry">
            <mxPoint x="1350" y="900" as="sourcePoint" />
            <mxPoint x="990" y="700" as="targetPoint" />
          </mxGeometry>
        </mxCell>
        <mxCell id="LbVXL361Wuzx-bzGxzNl-137" value="" style="endArrow=classic;html=1;rounded=0;entryX=1;entryY=0.5;entryDx=0;entryDy=0;exitX=0.5;exitY=0.5;exitDx=0;exitDy=0;exitPerimeter=0;" edge="1" parent="1" source="LbVXL361Wuzx-bzGxzNl-131" target="LbVXL361Wuzx-bzGxzNl-125">
          <mxGeometry width="50" height="50" relative="1" as="geometry">
            <mxPoint x="1572" y="940" as="sourcePoint" />
            <mxPoint x="1210" y="860" as="targetPoint" />
          </mxGeometry>
        </mxCell>
        <mxCell id="LbVXL361Wuzx-bzGxzNl-138" value="" style="endArrow=classic;html=1;rounded=0;entryX=0;entryY=0.5;entryDx=0;entryDy=0;exitX=0.5;exitY=0.5;exitDx=0;exitDy=0;exitPerimeter=0;" edge="1" parent="1" source="LbVXL361Wuzx-bzGxzNl-120" target="LbVXL361Wuzx-bzGxzNl-128">
          <mxGeometry width="50" height="50" relative="1" as="geometry">
            <mxPoint x="1602" y="840" as="sourcePoint" />
            <mxPoint x="1240" y="880" as="targetPoint" />
          </mxGeometry>
        </mxCell>
        <mxCell id="LbVXL361Wuzx-bzGxzNl-139" value="" style="endArrow=classic;html=1;rounded=0;entryX=0;entryY=0.5;entryDx=0;entryDy=0;exitX=0.5;exitY=0.5;exitDx=0;exitDy=0;exitPerimeter=0;" edge="1" parent="1" source="LbVXL361Wuzx-bzGxzNl-120" target="LbVXL361Wuzx-bzGxzNl-129">
          <mxGeometry width="50" height="50" relative="1" as="geometry">
            <mxPoint x="1607" y="850" as="sourcePoint" />
            <mxPoint x="1240" y="1020" as="targetPoint" />
          </mxGeometry>
        </mxCell>
        <mxCell id="LbVXL361Wuzx-bzGxzNl-140" value="" style="endArrow=classic;html=1;rounded=0;entryX=0;entryY=0.5;entryDx=0;entryDy=0;exitX=0.5;exitY=0.5;exitDx=0;exitDy=0;exitPerimeter=0;" edge="1" parent="1" source="LbVXL361Wuzx-bzGxzNl-120" target="LbVXL361Wuzx-bzGxzNl-130">
          <mxGeometry width="50" height="50" relative="1" as="geometry">
            <mxPoint x="370" y="950" as="sourcePoint" />
            <mxPoint x="723" y="1220" as="targetPoint" />
          </mxGeometry>
        </mxCell>
        <mxCell id="LbVXL361Wuzx-bzGxzNl-141" value="" style="endArrow=classic;html=1;rounded=0;entryX=0;entryY=0.5;entryDx=0;entryDy=0;exitX=0.5;exitY=0.5;exitDx=0;exitDy=0;exitPerimeter=0;" edge="1" parent="1" source="LbVXL361Wuzx-bzGxzNl-120" target="LbVXL361Wuzx-bzGxzNl-121">
          <mxGeometry width="50" height="50" relative="1" as="geometry">
            <mxPoint x="400" y="920" as="sourcePoint" />
            <mxPoint x="753" y="1060" as="targetPoint" />
          </mxGeometry>
        </mxCell>
        <mxCell id="LbVXL361Wuzx-bzGxzNl-143" value="&amp;lt;&amp;lt;includes&amp;gt;&amp;gt;" style="text;html=1;align=center;verticalAlign=middle;whiteSpace=wrap;rounded=0;" vertex="1" parent="1">
          <mxGeometry x="780" y="691" width="60" height="30" as="geometry" />
        </mxCell>
      </root>
    </mxGraphModel>
  </diagram>
</mxfile>
